name C:\Users\u0101727\Documents\MyRepositories\upper-imu-dc\Results\main_tracking\Case_40\FLX01_linearAccelerations_groundFrame.mot
datacolumns 4
datarows 82
range 3.51000000 4.32000000
endheader 
time	radius_imu_x	radius_imu_y	radius_imu_z	
          3.51000000	         -0.13191717	          9.72638534	          0.67216545	
          3.52000000	         -0.20636166	          9.71458742	          0.71045796	
          3.53000000	         -0.25750768	          9.70341230	          0.71045065	
          3.54000000	         -0.28374704	          9.69244431	          0.67151230	
          3.55000000	         -0.28685965	          9.68196947	          0.59712347	
          3.56000000	         -0.27181312	          9.67359836	          0.49472629	
          3.57000000	         -0.24590447	          9.67038299	          0.37473159	
          3.58000000	         -0.21757949	          9.67598880	          0.24889702	
          3.59000000	         -0.19495061	          9.69303094	          0.12839980	
          3.60000000	         -0.18397502	          9.72163335	          0.02212818	
          3.61000000	         -0.18677636	          9.75927607	         -0.06424998	
          3.62000000	         -0.20100597	          9.80182332	         -0.12825365	
          3.63000000	         -0.22063156	          9.84470309	         -0.16993314	
          3.64000000	         -0.23763914	          9.88358310	         -0.19109802	
          3.65000000	         -0.24400686	          9.91482603	         -0.19456400	
          3.66000000	         -0.23342212	          9.93599553	         -0.18342513	
          3.67000000	         -0.20208271	          9.94605853	         -0.16061300	
          3.68000000	         -0.14855457	          9.94475690	         -0.12896046	
          3.69000000	         -0.07337599	          9.93159156	         -0.09145949	
          3.70000000	          0.02121389	          9.90545943	         -0.05124443	
          3.71000000	          0.13185153	          9.86542682	         -0.01117854	
          3.72000000	          0.25552970	          9.81236900	          0.02678173	
          3.73000000	          0.39105109	          9.75022512	          0.06192708	
          3.74000000	          0.53867142	          9.68588293	          0.09455740	
          3.75000000	          0.69766326	          9.62782353	          0.12546693	
          3.76000000	          0.86352497	          9.58419467	          0.15549817	
          3.77000000	          1.02710676	          9.56056512	          0.18500030	
          3.78000000	          1.17691683	          9.55756384	          0.21299154	
          3.79000000	          1.30332261	          9.56954685	          0.23643566	
          3.80000000	          1.40163350	          9.58582941	          0.25036526	
          3.81000000	          1.47245568	          9.59449847	          0.24911934	
          3.82000000	          1.51981411	          9.58680301	          0.22826584	
          3.83000000	          1.54822518	          9.55976241	          0.18636990	
          3.84000000	          1.56030525	          9.51605476	          0.12564796	
          3.85000000	          1.55643992	          9.46198256	          0.05103790	
          3.86000000	          1.53634652	          9.40505350	         -0.03171380	
          3.87000000	          1.50083693	          9.35223965	         -0.11772234	
          3.88000000	          1.45277596	          9.30898429	         -0.20368119	
          3.89000000	          1.39752244	          9.27855539	         -0.28782695	
          3.90000000	          1.34282978	          9.26194045	         -0.36946941	
          3.91000000	          1.29752349	          9.25880863	         -0.44799901	
          3.92000000	          1.26903928	          9.26888820	         -0.52152433	
          3.93000000	          1.26109495	          9.29190708	         -0.58612331	
          3.94000000	          1.27278037	          9.32544758	         -0.63658580	
          3.95000000	          1.29920542	          9.36285921	         -0.66808447	
          3.96000000	          1.33320181	          9.39377924	         -0.67745831	
          3.97000000	          1.36780178	          9.40697133	         -0.66372991	
          3.98000000	          1.39886582	          9.39332174	         -0.62819344	
          3.99000000	          1.42646710	          9.34762867	         -0.57419295	
          4.00000000	          1.45422419	          9.26908352	         -0.50664726	
          4.01000000	          1.48729321	          9.16092171	         -0.43143956	
          4.02000000	          1.53039036	          9.02980439	         -0.35463084	
          4.03000000	          1.58640553	          8.88504865	         -0.28163132	
          4.04000000	          1.65503750	          8.73757985	         -0.21661623	
          4.05000000	          1.73100294	          8.59888898	         -0.16201642	
          4.06000000	          1.80277477	          8.48030290	         -0.11791805	
          4.07000000	          1.85341367	          8.39233608	         -0.08180982	
          4.08000000	          1.86378105	          8.34378142	         -0.04913555	
          4.09000000	          1.81695600	          8.34047092	         -0.01453914	
          4.10000000	          1.70229276	          8.38376606	          0.02655962	
          4.11000000	          1.51785842	          8.46904554	          0.07634566	
          4.12000000	          1.27048681	          8.58521015	          0.13367164	
          4.13000000	          0.97344607	          8.71669760	          0.19504949	
          4.14000000	          0.64291139	          8.84803437	          0.25762193	
          4.15000000	          0.29513085	          8.96854544	          0.32211994	
          4.16000000	         -0.05447966	          9.07432728	          0.39351822	
          4.17000000	         -0.39038615	          9.16648447	          0.47864757	
          4.18000000	         -0.69551456	          9.24747756	          0.58228013	
          4.19000000	         -0.95120451	          9.31871035	          0.70443615	
          4.20000000	         -1.13911554	          9.38038013	          0.84002652	
          4.21000000	         -1.24414161	          9.43173613	          0.97943230	
          4.22000000	         -1.25718733	          9.46985643	          1.10847747	
          4.23000000	         -1.17721029	          9.48740482	          1.20812650	
          4.24000000	         -1.01265125	          9.47214039	          1.25617189	
          4.25000000	         -0.78252004	          9.41070243	          1.23301993	
          4.26000000	         -0.51621363	          9.29543879	          1.13008364	
          4.27000000	         -0.24960374	          9.12942565	          0.95491044	
          4.28000000	         -0.01637318	          8.92631131	          0.72826302	
          4.29000000	          0.16082848	          8.70697443	          0.47664598	
          4.30000000	          0.27273227	          8.49679618	          0.22839916	
          4.31000000	          0.31882842	          8.32370123	          0.01475364	
          4.32000000	          0.30196942	          8.21440767	         -0.13093548	
